# xmcd
#
# Track frame offsets: 
#        150
#        12459
#        24432
#        36256
#        52616
#        68773
#        81804
#        90255
#        100733
#        114024
#        126836
#        150747
#        162347
#        174469
#        184618
#        192172
#        200067
#        216458
#        229420
#        243454
#        255951
#
# Disc length: 3583 seconds
#
# Revision: 0
# Processed by: cddbd v1.5.2PL0 Copyright (c) Steve Scherf et al.
# Submitted via: ExactAudioCopy v0.99pb5
#
DISCID=0c0dfd15
DTITLE=Roosevelt Sykes - King of Barrelhouse
DYEAR=1977
DGENRE=Blues
TTITLE0=The Honeydripper
TTITLE1=Music Is My Business
TTITLE2=Mistake in Life
TTITLE3=New York Boogie
TTITLE4=Dream Woman
TTITLE5=Stop Stoppin' Me
TTITLE6=Look Out for Yourself
TTITLE7=Some Right, Some Wrong
TTITLE8=Take Time Out
TTITLE9=Hot Pants
TTITLE10=A Good Woman
TTITLE11=Just Smile
TTITLE12=Leavin' Chicago
TTITLE13=Funky Side
TTITLE14=Last Chance
TTITLE15=Who's That Pretty Woman
TTITLE16=How Long
TTITLE17=Journey from the Germs
TTITLE18=44 Blues
TTITLE19=She's Got What It Takes
TTITLE20=Let the Black Have His Way
EXTD=
EXTT0=
EXTT1=
EXTT2=
EXTT3=
EXTT4=
EXTT5=
EXTT6=
EXTT7=
EXTT8=
EXTT9=
EXTT10=
EXTT11=
EXTT12=
EXTT13=
EXTT14=
EXTT15=
EXTT16=
EXTT17=
EXTT18=
EXTT19=
EXTT20=
PLAYORDER=
